<?xml version="1.0" encoding="utf-8"?>
<!DOCTYPE svg PUBLIC "-//W3C//DTD SVG 1.1//EN" "http://www.w3.org/Graphics/SVG/1.1/DTD/svg11.dtd">
<svg version="1.1" xmlns="http://www.w3.org/2000/svg" xmlns:xlink="http://www.w3.org/1999/xlink" x="0px" y="0px" viewBox="0 0 1000 1000" enable-background="new 0 0 1000 1000" xml:space="preserve" fill="#ff0000">
<metadata> Svg Vector Icons : http://www.onlinewebfonts.com/icon </metadata>
<g><g transform="translate(0.000000,512.000000) scale(0.100000,-0.100000)"><path d="M4463.9,5006.1c-719.8-67-1389.8-235.5-1933.5-488.2l-239.3-111l-315.9-3.8c-264.2-1.9-338.8-9.6-455.6-44c-367.6-111-654.7-338.9-752.3-597.3c-72.7-187.6-67-371.4,13.4-583.9c7.6-17.2,1.9-28.7-17.2-28.7c-15.3,0-88.1-30.6-160.8-67c-231.6-114.9-407.8-336.9-474.8-597.3c-153.1-589.6,348.4-1177.3,962.9-1129.5c116.8,9.6,122.5,7.7,139.8-40.2c11.5-26.8,57.4-103.4,105.3-168.5c319.7-449.9,901.7-539.9,1336.2-206.8c49.8,38.3,93.8,65.1,95.7,61.3c3.8-1.9,17.2-47.9,28.7-101.5c59.3-239.3,294.8-532.2,530.3-656.6c394.4-204.8,851.9-139.8,1186.9,174.2c183.8,170.4,179.9,174.2,179.9-269.9c0-210.6-5.7-497.7-11.5-639.4l-13.4-258.4l-68.9,24.9c-97.6,34.5-327.4,32.5-436.5-3.8c-191.4-65.1-348.4-222.1-377.1-381c-11.5-53.6-23-67-74.7-76.6c-396.3-80.4-539.9-139.7-539.9-220.2s143.6-139.7,539.9-220.2c42.1-7.7,67-28.7,82.3-67c34.5-82.3,160.8-187.6,294.8-248.9c114.9-51.7,405.8-134,474.8-134c26.8,0,34.5-15.3,34.5-61.3c0-147.4-86.1-1007-174.2-1751.7c-24.9-199.1-40.2-237.4-63.2-147.4c-17.2,67-191.4,237.4-291,285.3c-74.7,34.5-80.4,44-90,128.3c-23,195.3-128.3,348.4-291,428.8c-91.9,44.1-122.5,49.8-245,42.1c-118.7-5.7-157-15.3-239.3-67l-99.6-61.3l-57.4,84.2c-160.8,235.5-493.9,321.6-756.2,199.1c-179.9-84.2-321.6-273.8-346.5-465.2c-11.5-82.3-13.4-84.2-95.7-95.7c-191.4-24.9-377.1-164.6-467.1-346.5c-67-137.8-67-379,0-516.9c59.4-122.5,174.2-237.4,296.7-296.7c88.1-44,116.8-47.9,335-46c310.1,1.9,478.6,53.6,725.6,220.2c220.2,147.4,279.5,170.4,426.9,170.4c141.7,0,193.3-28.7,225.9-124.4c28.7-86.1,151.2-189.5,281.4-239.3c99.6-36.4,147.4-38.3,1326.7-38.3c1173.5,0,1227.1,1.9,1324.8,38.3c128.3,47.9,241.2,139.7,277.6,227.8c49.8,120.6,74.6,135.9,220.2,135.9c157,0,225.9-26.8,411.6-155.1c262.3-180,444.1-237.4,771.5-237.4c195.3,0,229.7,5.7,315.9,47.9c122.5,59.3,237.4,174.2,296.7,296.7c38.3,78.5,47.9,124.4,47.9,258.4c0,134-9.6,180-47.9,258.4c-90,181.9-275.7,321.6-467.1,346.5c-82.3,11.5-84.2,13.4-95.7,95.7c-24.9,191.4-166.5,381-346.5,465.2c-262.3,122.5-595.4,36.4-756.2-199.1l-57.4-84.2l-97.6,61.3c-80.4,47.9-122.5,61.3-227.8,67c-72.7,3.8-160.8-1.9-197.2-13.4c-180-59.3-327.4-246.9-350.3-442.2c-11.5-101.5-15.3-107.2-90-143.6c-111-53.6-256.5-191.4-285.3-269.9c-11.5-34.5-28.7-65.1-34.5-65.1c-21.1,0-145.5,1060.6-220.2,1868.4l-13.4,135.9l99.6,13.4c141.7,19.2,394.4,101.5,511.2,166.6c103.4,59.4,204.8,160.8,225.9,225.9c5.7,23,34.5,42.1,72.7,49.8c396.3,80.4,539.9,139.7,539.9,220.2s-143.6,139.7-539.9,220.2c-51.7,9.6-63.2,23-74.6,76.6c-28.7,158.9-185.7,315.9-377.1,381c-113,38.3-338.8,38.3-444.1,1.9c-40.2-15.3-76.6-24.9-78.5-23c-11.5,13.4-28.7,1181.2-17.2,1181.2c5.7,0,51.7-34.5,101.5-74.7c308.2-256.5,731.3-300.6,1100.8-114.9c160.8,82.3,367.6,292.9,448,459.5c55.5,114.9,72.7,170.4,111,348.4l11.5,53.6l109.1-101.5c315.9-291,708.3-342.7,1079.7-145.5c137.8,72.7,329.3,271.8,407.8,423.1c40.2,78.5,65.1,105.3,86.1,97.6c15.3-5.7,90-15.3,162.7-21.1c612.6-47.9,1110.3,541.8,957.2,1129.5c-67,260.4-243.1,482.4-474.8,597.3c-72.7,36.4-145.5,67-158.9,67c-15.3,0-26.8,1.9-26.8,5.7c0,1.9,17.2,59.4,38.3,124.4c143.6,457.5-172.3,899.8-769.6,1079.7c-116.8,34.5-193.3,42.1-455.6,44l-315.9,3.8L7479,4514.1c-505.4,233.6-1096.9,392.4-1751.7,472.9C5505.3,5013.7,4686,5027.1,4463.9,5006.1z"/></g></g>
</svg>